<svg width="40" height="40" viewBox="0 0 40 40" fill="none" xmlns="http://www.w3.org/2000/svg">
    <circle cx="20" cy="20" r="20" fill="#FF2A54"/>
    <path d="M11.0008 15.4938C11.0008 16.2473 11.2771 17.0755 11.6282 17.9543C11.9792 18.8332 12.4315 19.6614 12.7833 20.2888C13.7376 21.946 14.9674 23.5776 16.3732 24.9328C17.7789 26.288 19.4361 27.4183 21.2933 28.0963C22.3729 28.5228 23.4525 29 24.6574 29C25.2599 29 26.1138 28.7743 26.8914 28.4473C27.6449 28.1212 28.322 27.6191 28.5735 27.0166C28.6739 26.7909 28.7992 26.4896 28.8747 26.1378C28.9502 25.8116 29 25.4847 29 25.2589C29 25.1336 29 25.0075 28.9751 24.9826C28.8996 24.8316 28.7237 24.7063 28.5228 24.5809C28.0706 24.3552 27.9959 24.2797 27.3179 23.878C26.615 23.4764 25.8873 23.0241 25.2591 22.698C24.9579 22.522 24.7571 22.4465 24.6815 22.4465C24.2799 22.4465 23.7778 22.9992 23.3513 23.6017C22.8991 24.2042 22.397 24.7569 22.046 24.7569C21.87 24.7569 21.6941 24.6813 21.4933 24.556C21.2925 24.4307 21.0917 24.3303 20.9664 24.2548C18.7573 22.9992 17.2761 21.5187 16.0213 19.3344C15.8703 19.083 15.5193 18.556 15.5193 18.2797C15.5193 17.9535 15.9715 17.5768 16.423 17.1751C16.8495 16.7984 17.3018 16.3469 17.3018 15.7942C17.3018 15.7187 17.2512 15.493 17.1508 15.1668C16.925 14.5137 16.6238 13.761 16.3724 13.0332C16.2471 12.6813 16.1466 12.4307 16.1209 12.3054C16.0703 12.2299 16.0454 12.1295 16.0205 12.0042C15.9956 11.8788 15.945 11.7784 15.9201 11.678C15.8446 11.4523 15.7193 11.2763 15.594 11.1759C15.4687 11.1253 15.1674 11.0506 14.8662 11.0249C14.565 11.0249 14.2131 11 14.0629 11C13.9874 11 13.887 11 13.7866 11.0249H13.4605C12.6572 11.3768 12.0796 12.0797 11.6531 12.9079C11.2514 13.7361 11 14.6656 11 15.4938H11.0008Z" fill="black"/>
</svg>
