<svg width="25" height="25" viewBox="0 0 25 25" fill="none" xmlns="http://www.w3.org/2000/svg">
    <path fill-rule="evenodd" clip-rule="evenodd" d="M8.55053 16.4495C11.5518 19.4509 14.3395 21.1241 16.4139 22.0534C18.2246 22.8646 20.3622 22.2285 22.0287 20.5619L22.4103 20.1804L17.8316 17.2667C16.9608 18.5365 15.3155 19.28 13.6728 18.5865C12.4279 18.0611 10.7816 17.1637 9.309 15.691C7.83641 14.2184 6.93894 12.5721 6.41347 11.3273C5.72006 9.68456 6.46356 8.0392 7.73326 7.1683L4.81963 2.58974L4.43803 2.97134C2.77153 4.63784 2.13547 6.77536 2.94664 8.58618C3.87585 10.6606 5.54919 13.4481 8.55053 16.4495ZM15.3552 24.4166C13.0056 23.3642 9.95329 21.5144 6.71944 18.2805C3.48562 15.0468 1.63584 11.9944 0.58335 9.64482C-0.809459 6.53554 0.461305 3.28586 2.60694 1.14023L2.98854 0.758628C4.15998 -0.412815 6.11493 -0.198218 7.00434 1.19946L10.6696 6.95901C10.8664 7.26828 10.9228 7.64649 10.8249 7.99977C10.727 8.35305 10.4841 8.6483 10.1562 8.81225L9.33573 9.22249C8.7766 9.50204 8.66187 9.9949 8.79919 10.3202C9.23797 11.3597 9.97154 12.6913 11.1401 13.8599C12.3088 15.0286 13.6403 15.7621 14.6798 16.2009C15.0051 16.3381 15.4979 16.2234 15.7775 15.6643L16.1878 14.8438C16.3517 14.516 16.6469 14.2729 17.0003 14.175C17.3535 14.0771 17.7317 14.1337 18.041 14.3305L23.8006 17.9957C25.1982 18.8851 25.4129 20.8401 24.2413 22.0115L23.8598 22.393C21.7142 24.5387 18.4644 25.8094 15.3552 24.4166Z" fill="black" fill-opacity="0.5"/>
</svg>
